<svg width="96" height="112" viewBox="0 0 96 112" fill="none" xmlns="http://www.w3.org/2000/svg">
<path d="M59.7398 90.6393V77.0915H32.4365L35.0808 74.1312C41.8088 66.5996 59.7317 45.9246 61.8455 40.7747C63.2781 37.2852 62.8121 33.024 60.6603 29.9176C59.0782 27.6348 55.885 24.9126 49.6564 24.9126C46.1952 24.9126 37.9402 26.2068 36.0473 38.1952L32.4307 37.6515C34.8218 22.5163 46.2205 21.34 49.6564 21.34C55.7677 21.34 60.7524 23.6757 63.6901 27.9156C66.5472 32.0376 67.141 37.474 65.2412 42.1026C62.9801 47.6098 46.8936 66.1985 40.4567 73.5178H59.7387V60.0599H63.3967V73.5178H72.9461V77.0893H63.3967V90.637H59.7387L59.7398 90.6393ZM93.3615 91.72C85.5047 98.9888 72.5238 107.652 55.2993 107.652C40.9066 107.652 27.782 102.385 18.3395 92.8199C8.98565 83.3458 3.83521 70.3137 3.83521 56.1245C3.83521 25.2845 24.9076 3.74448 55.0796 3.74448C69.1995 3.74448 81.7316 8.75621 93.3937 19.0662L95.9678 16.2901C83.7418 5.48134 69.9855 0 55.0796 0C22.65 0 0 23.0791 0 56.1245C0 89.1698 23.7742 111.396 55.2993 111.396C73.7861 111.396 87.6357 102.174 96 94.4377L93.3615 91.72Z" fill="#BB6228"/>
</svg>